<mxfile host="app.diagrams.net" agent="Mozilla/5.0 (Macintosh; Intel Mac OS X 10_15_7) AppleWebKit/537.36 (KHTML, like Gecko) Chrome/128.0.0.0 Safari/537.36" version="24.7.16">
  <diagram name="ページ1" id="IDqmQJQXYMVia_tHzmbd">
    <mxGraphModel dx="765" dy="1757" grid="1" gridSize="10" guides="1" tooltips="1" connect="1" arrows="1" fold="1" page="1" pageScale="1" pageWidth="827" pageHeight="1169" math="0" shadow="0">
      <root>
        <mxCell id="0" />
        <mxCell id="1" parent="0" />
        <mxCell id="qZDzYmMbD7gUfo3dhRsL-1" value="" style="sketch=0;points=[[0,0,0],[0.25,0,0],[0.5,0,0],[0.75,0,0],[1,0,0],[0,1,0],[0.25,1,0],[0.5,1,0],[0.75,1,0],[1,1,0],[0,0.25,0],[0,0.5,0],[0,0.75,0],[1,0.25,0],[1,0.5,0],[1,0.75,0]];outlineConnect=0;fontColor=#232F3E;fillColor=#8C4FFF;strokeColor=#ffffff;dashed=0;verticalLabelPosition=bottom;verticalAlign=top;align=center;html=1;fontSize=12;fontStyle=0;aspect=fixed;shape=mxgraph.aws4.resourceIcon;resIcon=mxgraph.aws4.cloudfront;" vertex="1" parent="1">
          <mxGeometry x="3360" y="550" width="78" height="78" as="geometry" />
        </mxCell>
        <mxCell id="qZDzYmMbD7gUfo3dhRsL-2" value="&lt;font style=&quot;font-size: 14px;&quot;&gt;CloudFront&lt;/font&gt;" style="text;strokeColor=none;align=center;fillColor=none;html=1;verticalAlign=middle;whiteSpace=wrap;rounded=0;" vertex="1" parent="1">
          <mxGeometry x="3358" y="630" width="80" height="30" as="geometry" />
        </mxCell>
        <mxCell id="qZDzYmMbD7gUfo3dhRsL-3" value="" style="sketch=0;points=[[0,0,0],[0.25,0,0],[0.5,0,0],[0.75,0,0],[1,0,0],[0,1,0],[0.25,1,0],[0.5,1,0],[0.75,1,0],[1,1,0],[0,0.25,0],[0,0.5,0],[0,0.75,0],[1,0.25,0],[1,0.5,0],[1,0.75,0]];outlineConnect=0;fontColor=#232F3E;fillColor=#8C4FFF;strokeColor=#ffffff;dashed=0;verticalLabelPosition=bottom;verticalAlign=top;align=center;html=1;fontSize=12;fontStyle=0;aspect=fixed;shape=mxgraph.aws4.resourceIcon;resIcon=mxgraph.aws4.route_53;" vertex="1" parent="1">
          <mxGeometry x="3160" y="550" width="80" height="80" as="geometry" />
        </mxCell>
        <mxCell id="qZDzYmMbD7gUfo3dhRsL-6" value="" style="edgeStyle=orthogonalEdgeStyle;html=1;endArrow=block;elbow=vertical;startArrow=block;startFill=1;endFill=1;strokeColor=#545B64;rounded=0;exitX=0;exitY=0.5;exitDx=0;exitDy=0;exitPerimeter=0;" edge="1" parent="1" source="qZDzYmMbD7gUfo3dhRsL-3">
          <mxGeometry width="100" relative="1" as="geometry">
            <mxPoint x="3080.23" y="670" as="sourcePoint" />
            <mxPoint x="3040" y="590" as="targetPoint" />
            <Array as="points">
              <mxPoint x="3070" y="590" />
              <mxPoint x="3070" y="590" />
            </Array>
          </mxGeometry>
        </mxCell>
        <mxCell id="qZDzYmMbD7gUfo3dhRsL-7" value="&lt;font style=&quot;font-size: 14px;&quot;&gt;Route 53&lt;br&gt;ドメイン登録&lt;/font&gt;" style="text;strokeColor=none;align=center;fillColor=none;html=1;verticalAlign=middle;whiteSpace=wrap;rounded=0;" vertex="1" parent="1">
          <mxGeometry x="3155" y="630" width="90" height="40" as="geometry" />
        </mxCell>
        <mxCell id="qZDzYmMbD7gUfo3dhRsL-13" value="" style="sketch=0;points=[[0,0,0],[0.25,0,0],[0.5,0,0],[0.75,0,0],[1,0,0],[0,1,0],[0.25,1,0],[0.5,1,0],[0.75,1,0],[1,1,0],[0,0.25,0],[0,0.5,0],[0,0.75,0],[1,0.25,0],[1,0.5,0],[1,0.75,0]];outlineConnect=0;fontColor=#232F3E;fillColor=#7AA116;strokeColor=#ffffff;dashed=0;verticalLabelPosition=bottom;verticalAlign=top;align=center;html=1;fontSize=12;fontStyle=0;aspect=fixed;shape=mxgraph.aws4.resourceIcon;resIcon=mxgraph.aws4.s3;" vertex="1" parent="1">
          <mxGeometry x="3560" y="550" width="78" height="78" as="geometry" />
        </mxCell>
        <mxCell id="qZDzYmMbD7gUfo3dhRsL-15" value="" style="edgeStyle=orthogonalEdgeStyle;html=1;endArrow=block;elbow=vertical;startArrow=block;startFill=1;endFill=1;strokeColor=#545B64;rounded=0;exitX=0;exitY=0.5;exitDx=0;exitDy=0;exitPerimeter=0;" edge="1" parent="1">
          <mxGeometry width="100" relative="1" as="geometry">
            <mxPoint x="3360" y="590" as="sourcePoint" />
            <mxPoint x="3240" y="590" as="targetPoint" />
            <Array as="points">
              <mxPoint x="3270" y="590" />
              <mxPoint x="3270" y="590" />
            </Array>
          </mxGeometry>
        </mxCell>
        <mxCell id="qZDzYmMbD7gUfo3dhRsL-16" value="" style="edgeStyle=orthogonalEdgeStyle;html=1;endArrow=block;elbow=vertical;startArrow=block;startFill=1;endFill=1;strokeColor=#545B64;rounded=0;exitX=0;exitY=0.5;exitDx=0;exitDy=0;exitPerimeter=0;" edge="1" parent="1">
          <mxGeometry width="100" relative="1" as="geometry">
            <mxPoint x="3560" y="590" as="sourcePoint" />
            <mxPoint x="3440" y="590" as="targetPoint" />
            <Array as="points">
              <mxPoint x="3470" y="590" />
              <mxPoint x="3470" y="590" />
            </Array>
          </mxGeometry>
        </mxCell>
        <mxCell id="qZDzYmMbD7gUfo3dhRsL-17" value="&lt;font style=&quot;font-size: 14px;&quot;&gt;S3&lt;br&gt;静的なhtml.indexを配置&lt;/font&gt;" style="text;strokeColor=none;align=center;fillColor=none;html=1;verticalAlign=middle;whiteSpace=wrap;rounded=0;" vertex="1" parent="1">
          <mxGeometry x="3514" y="630" width="170" height="40" as="geometry" />
        </mxCell>
        <mxCell id="qZDzYmMbD7gUfo3dhRsL-20" value="" style="sketch=0;points=[[0,0,0],[0.25,0,0],[0.5,0,0],[0.75,0,0],[1,0,0],[0,1,0],[0.25,1,0],[0.5,1,0],[0.75,1,0],[1,1,0],[0,0.25,0],[0,0.5,0],[0,0.75,0],[1,0.25,0],[1,0.5,0],[1,0.75,0]];outlineConnect=0;fontColor=#232F3E;fillColor=#DD344C;strokeColor=#ffffff;dashed=0;verticalLabelPosition=bottom;verticalAlign=top;align=center;html=1;fontSize=12;fontStyle=0;aspect=fixed;shape=mxgraph.aws4.resourceIcon;resIcon=mxgraph.aws4.certificate_manager_3;" vertex="1" parent="1">
          <mxGeometry x="3359" y="266.5" width="82.5" height="82.5" as="geometry" />
        </mxCell>
        <mxCell id="qZDzYmMbD7gUfo3dhRsL-22" value="" style="edgeStyle=orthogonalEdgeStyle;html=1;endArrow=block;elbow=vertical;startArrow=none;endFill=1;strokeColor=#545B64;rounded=0;entryX=0.5;entryY=0;entryDx=0;entryDy=0;entryPerimeter=0;" edge="1" parent="1" source="qZDzYmMbD7gUfo3dhRsL-20" target="qZDzYmMbD7gUfo3dhRsL-1">
          <mxGeometry width="100" relative="1" as="geometry">
            <mxPoint x="3400" y="350" as="sourcePoint" />
            <mxPoint x="3460" y="510" as="targetPoint" />
            <Array as="points">
              <mxPoint x="3400" y="451" />
              <mxPoint x="3399" y="451" />
            </Array>
          </mxGeometry>
        </mxCell>
        <mxCell id="qZDzYmMbD7gUfo3dhRsL-19" value="" style="outlineConnect=0;dashed=0;verticalLabelPosition=bottom;verticalAlign=top;align=center;html=1;shape=mxgraph.aws3.certificate_manager_2;fillColor=#759C3E;gradientColor=none;" vertex="1" parent="1">
          <mxGeometry x="3390" y="420" width="73.5" height="63" as="geometry" />
        </mxCell>
        <mxCell id="qZDzYmMbD7gUfo3dhRsL-24" value="&lt;font style=&quot;font-size: 14px;&quot;&gt;SSL証明書発行&lt;/font&gt;" style="text;strokeColor=none;align=center;fillColor=none;html=1;verticalAlign=middle;whiteSpace=wrap;rounded=0;" vertex="1" parent="1">
          <mxGeometry x="3410" y="490" width="110" height="30" as="geometry" />
        </mxCell>
        <mxCell id="qZDzYmMbD7gUfo3dhRsL-25" value="" style="fontColor=#0066CC;verticalAlign=top;verticalLabelPosition=bottom;labelPosition=center;align=center;html=1;outlineConnect=0;fillColor=#CCCCCC;strokeColor=#6881B3;gradientColor=none;gradientDirection=north;strokeWidth=2;shape=mxgraph.networks.pc;" vertex="1" parent="1">
          <mxGeometry x="2920" y="555" width="100" height="70" as="geometry" />
        </mxCell>
        <mxCell id="qZDzYmMbD7gUfo3dhRsL-28" value="AWS Cloud" style="points=[[0,0],[0.25,0],[0.5,0],[0.75,0],[1,0],[1,0.25],[1,0.5],[1,0.75],[1,1],[0.75,1],[0.5,1],[0.25,1],[0,1],[0,0.75],[0,0.5],[0,0.25]];outlineConnect=0;gradientColor=none;html=1;whiteSpace=wrap;fontSize=12;fontStyle=0;container=1;pointerEvents=0;collapsible=0;recursiveResize=0;shape=mxgraph.aws4.group;grIcon=mxgraph.aws4.group_aws_cloud;strokeColor=#232F3E;fillColor=none;verticalAlign=top;align=left;spacingLeft=30;fontColor=#232F3E;dashed=0;" vertex="1" parent="1">
          <mxGeometry x="2840" y="190" width="920" height="790" as="geometry" />
        </mxCell>
      </root>
    </mxGraphModel>
  </diagram>
</mxfile>
